<svg width="280" height="27" viewBox="0 0 280 27" fill="none" xmlns="http://www.w3.org/2000/svg">
<path d="M0.268 2.78C0.268 2.228 0.472 1.76 0.88 1.376C1.312 0.991999 1.84 0.799998 2.464 0.799998H12.616C14.296 0.799998 15.784 1.148 17.08 1.844C18.376 2.516 19.384 3.464 20.104 4.688C20.824 5.912 21.184 7.328 21.184 8.936C21.184 10.592 20.836 12.044 20.14 13.292C19.444 14.516 18.448 15.464 17.152 16.136C15.856 16.808 14.344 17.144 12.616 17.144H4.588V23.012C4.588 24.092 4.216 24.92 3.472 25.496C2.752 26.048 1.684 26.324 0.268 26.324V2.78ZM12.616 13.364C13.96 13.364 14.992 12.98 15.712 12.212C16.456 11.42 16.828 10.328 16.828 8.936C16.828 7.592 16.456 6.536 15.712 5.768C14.968 4.976 13.936 4.58 12.616 4.58H4.588V13.364H12.616ZM30.1539 26.324C28.6899 26.324 27.3459 26.036 26.1219 25.46C24.9219 24.884 23.9739 24.092 23.2779 23.084C22.5819 22.052 22.2339 20.9 22.2339 19.628V14.66C22.2339 13.34 22.5939 12.152 23.3139 11.096C24.0339 10.04 25.0059 9.212 26.2299 8.612C27.4539 7.988 28.7739 7.676 30.1899 7.676C31.6059 7.676 32.8899 7.964 34.0419 8.54C35.2179 9.116 36.1419 9.932 36.8139 10.988C37.5099 12.02 37.8579 13.184 37.8579 14.48V16.604C37.8579 17.084 37.6779 17.492 37.3179 17.828C36.9579 18.164 36.5019 18.332 35.9499 18.332H26.1579V19.376C26.1579 20.48 26.4939 21.368 27.1659 22.04C27.8619 22.712 28.8699 23.048 30.1899 23.048C31.4859 23.048 32.4579 22.772 33.1059 22.22C33.7539 21.644 34.0779 20.888 34.0779 19.952C34.2219 19.928 34.4379 19.916 34.7259 19.916C35.5419 19.916 36.1899 20.108 36.6699 20.492C37.1739 20.852 37.4259 21.368 37.4259 22.04C37.4259 22.76 37.1019 23.456 36.4539 24.128C35.8059 24.776 34.9179 25.304 33.7899 25.712C32.6859 26.12 31.4739 26.324 30.1539 26.324ZM34.1499 15.344V14.48C34.1499 13.4 33.7779 12.536 33.0339 11.888C32.3139 11.216 31.3539 10.88 30.1539 10.88C28.9539 10.88 27.9819 11.216 27.2379 11.888C26.5179 12.536 26.1579 13.4 26.1579 14.48V15.344H34.1499ZM50.3606 11.168C48.9686 11.168 47.8286 11.564 46.9406 12.356C46.0526 13.124 45.6086 14.072 45.6086 15.2V23.732C45.6086 24.644 45.2726 25.304 44.6006 25.712C43.9526 26.12 42.9446 26.324 41.5766 26.324V10.88C41.5766 8.744 42.8606 7.676 45.4286 7.676V9.836C45.0926 10.22 44.8166 10.604 44.6006 10.988L44.7806 11.132C46.3406 8.828 48.2486 7.676 50.5046 7.676C51.4646 7.676 52.1966 7.928 52.7006 8.432C53.2046 8.912 53.4566 9.524 53.4566 10.268C53.4566 10.82 53.3126 11.312 53.0246 11.744C52.3286 11.36 51.4406 11.168 50.3606 11.168ZM62.9412 26.324C60.7572 26.324 58.9572 25.904 57.5412 25.064C56.1492 24.224 55.4532 23.108 55.4532 21.716C55.4532 20.42 56.3652 19.736 58.1892 19.664C58.4052 20.816 58.9332 21.692 59.7732 22.292C60.6132 22.868 61.6332 23.156 62.8332 23.156C64.1292 23.156 65.1372 22.988 65.8572 22.652C66.5772 22.292 66.9372 21.764 66.9372 21.068C66.9372 20.396 66.6252 19.868 66.0012 19.484C65.4012 19.076 64.2372 18.668 62.5092 18.26C60.8052 17.876 59.4612 17.468 58.4772 17.036C57.4932 16.604 56.7492 16.052 56.2452 15.38C55.7652 14.708 55.5252 13.82 55.5252 12.716C55.5252 11.228 56.1612 10.016 57.4332 9.08C58.7292 8.144 60.4572 7.676 62.6172 7.676C64.7052 7.676 66.4572 8.06 67.8732 8.828C69.2892 9.596 69.9972 10.616 69.9972 11.888C69.9972 12.512 69.7572 12.98 69.2772 13.292C68.8212 13.604 68.1132 13.772 67.1532 13.796C66.7692 11.756 65.3172 10.736 62.7972 10.736C61.8132 10.736 60.9852 10.916 60.3132 11.276C59.6652 11.636 59.3412 12.104 59.3412 12.68C59.3412 13.28 59.6292 13.748 60.2052 14.084C60.8052 14.396 61.8012 14.696 63.1932 14.984C65.8332 15.536 67.7532 16.28 68.9532 17.216C70.1532 18.152 70.7532 19.436 70.7532 21.068C70.7532 22.676 70.0572 23.96 68.6652 24.92C67.2732 25.856 65.3652 26.324 62.9412 26.324ZM80.701 26.324C79.165 26.324 77.773 26.048 76.525 25.496C75.301 24.92 74.329 24.14 73.609 23.156C72.913 22.172 72.565 21.056 72.565 19.808V14.48C72.565 13.208 72.913 12.056 73.609 11.024C74.305 9.992 75.265 9.176 76.489 8.576C77.737 7.976 79.141 7.676 80.701 7.676C82.261 7.676 83.653 7.976 84.877 8.576C86.125 9.176 87.097 9.992 87.793 11.024C88.489 12.056 88.837 13.208 88.837 14.48V19.808C88.837 21.056 88.477 22.172 87.757 23.156C87.061 24.14 86.089 24.92 84.841 25.496C83.617 26.048 82.237 26.324 80.701 26.324ZM80.701 22.832C81.973 22.832 82.981 22.544 83.725 21.968C84.469 21.368 84.841 20.564 84.841 19.556V14.66C84.841 13.604 84.469 12.752 83.725 12.104C82.981 11.456 81.973 11.132 80.701 11.132C79.429 11.132 78.421 11.456 77.677 12.104C76.933 12.752 76.561 13.604 76.561 14.66V19.556C76.561 20.564 76.933 21.368 77.677 21.968C78.421 22.544 79.429 22.832 80.701 22.832ZM92.0961 10.88C92.0961 8.744 93.3801 7.676 95.9481 7.676V9.872C95.6601 10.184 95.3841 10.556 95.1201 10.988L95.3361 11.132C96.0321 10.076 96.9441 9.236 98.0721 8.612C99.2241 7.988 100.484 7.676 101.852 7.676C103.1 7.676 104.192 7.952 105.128 8.504C106.064 9.032 106.784 9.776 107.288 10.736C107.816 11.696 108.08 12.764 108.08 13.94V23.732C108.08 24.644 107.744 25.304 107.072 25.712C106.4 26.12 105.392 26.324 104.048 26.324V14.48C104.048 13.496 103.748 12.704 103.148 12.104C102.572 11.48 101.72 11.168 100.592 11.168C99.3441 11.168 98.2881 11.564 97.4241 12.356C96.5601 13.124 96.1281 14.072 96.1281 15.2V23.732C96.1281 24.644 95.7921 25.304 95.1201 25.712C94.4721 26.12 93.4641 26.324 92.0961 26.324V10.88ZM118.287 26.324C117.015 26.324 115.863 26.084 114.831 25.604C113.799 25.124 112.983 24.428 112.383 23.516C111.783 22.604 111.483 21.536 111.483 20.312C111.483 19.064 111.795 17.984 112.419 17.072C113.067 16.136 113.943 15.428 115.047 14.948C116.151 14.444 117.387 14.192 118.755 14.192C120.939 14.192 122.775 14.936 124.263 16.424L124.443 16.244C124.011 15.812 123.663 15.5 123.399 15.308V14.3C123.399 13.244 123.039 12.416 122.319 11.816C121.599 11.192 120.591 10.88 119.295 10.88C118.143 10.88 117.135 11.108 116.271 11.564C115.407 11.996 114.711 12.644 114.183 13.508C113.703 13.34 113.295 13.076 112.959 12.716C112.647 12.356 112.491 11.972 112.491 11.564C112.491 10.868 112.815 10.22 113.463 9.62C114.111 9.02 114.975 8.552 116.055 8.216C117.159 7.856 118.347 7.676 119.619 7.676C122.067 7.676 123.963 8.264 125.307 9.44C126.675 10.592 127.359 12.176 127.359 14.192V23.516C127.359 24.5 127.059 25.22 126.459 25.676C125.859 26.108 124.899 26.324 123.579 26.324V24.776C124.011 24.344 124.299 24.032 124.443 23.84L124.263 23.696C123.495 24.56 122.631 25.22 121.671 25.676C120.735 26.108 119.607 26.324 118.287 26.324ZM119.223 23.3C120.543 23.3 121.575 23.036 122.319 22.508C123.087 21.98 123.471 21.236 123.471 20.276C123.471 19.316 123.087 18.572 122.319 18.044C121.575 17.492 120.555 17.216 119.259 17.216C118.083 17.216 117.147 17.492 116.451 18.044C115.779 18.572 115.443 19.316 115.443 20.276C115.443 21.26 115.779 22.016 116.451 22.544C117.123 23.048 118.047 23.3 119.223 23.3ZM137.369 26.324C135.449 26.324 134.009 25.784 133.049 24.704C132.089 23.624 131.609 22.232 131.609 20.528V3.068C131.609 2.156 131.933 1.496 132.581 1.088C133.253 0.679998 134.273 0.475998 135.641 0.475998V20.384C135.641 21.248 135.821 21.872 136.181 22.256C136.565 22.616 137.177 22.796 138.017 22.796C138.953 22.796 139.805 22.568 140.573 22.112C140.789 22.304 140.957 22.556 141.077 22.868C141.197 23.156 141.257 23.444 141.257 23.732C141.257 24.404 140.909 25.004 140.213 25.532C139.541 26.06 138.593 26.324 137.369 26.324ZM162.325 26.324C160.549 26.324 158.941 25.988 157.501 25.316C156.061 24.62 154.933 23.672 154.117 22.472C153.301 21.248 152.893 19.892 152.893 18.404C152.893 17.468 153.277 16.808 154.045 16.424C154.837 16.04 155.917 15.848 157.285 15.848C157.213 16.232 157.177 16.748 157.177 17.396C157.177 19.028 157.621 20.288 158.509 21.176C159.397 22.064 160.669 22.508 162.325 22.508C163.957 22.508 165.217 22.04 166.105 21.104C167.017 20.168 167.473 18.824 167.473 17.072V4.58H163.585C161.545 4.58 160.525 3.32 160.525 0.799998H169.705C170.305 0.799998 170.809 0.991999 171.217 1.376C171.625 1.76 171.829 2.228 171.829 2.78V17.072C171.829 18.848 171.421 20.444 170.605 21.86C169.789 23.252 168.661 24.344 167.221 25.136C165.781 25.928 164.149 26.324 162.325 26.324ZM183.392 26.324C181.856 26.324 180.464 26.048 179.216 25.496C177.992 24.92 177.02 24.14 176.3 23.156C175.604 22.172 175.256 21.056 175.256 19.808V14.48C175.256 13.208 175.604 12.056 176.3 11.024C176.996 9.992 177.956 9.176 179.18 8.576C180.428 7.976 181.832 7.676 183.392 7.676C184.952 7.676 186.344 7.976 187.568 8.576C188.816 9.176 189.788 9.992 190.484 11.024C191.18 12.056 191.528 13.208 191.528 14.48V19.808C191.528 21.056 191.168 22.172 190.448 23.156C189.752 24.14 188.78 24.92 187.532 25.496C186.308 26.048 184.928 26.324 183.392 26.324ZM183.392 22.832C184.664 22.832 185.672 22.544 186.416 21.968C187.16 21.368 187.532 20.564 187.532 19.556V14.66C187.532 13.604 187.16 12.752 186.416 12.104C185.672 11.456 184.664 11.132 183.392 11.132C182.12 11.132 181.112 11.456 180.368 12.104C179.624 12.752 179.252 13.604 179.252 14.66V19.556C179.252 20.564 179.624 21.368 180.368 21.968C181.112 22.544 182.12 22.832 183.392 22.832ZM210.129 23.12C210.129 24.152 209.805 24.944 209.157 25.496C208.533 26.048 207.573 26.324 206.277 26.324V24.092C206.493 23.828 206.769 23.468 207.105 23.012L206.889 22.868C206.169 23.948 205.281 24.8 204.225 25.424C203.193 26.024 202.017 26.324 200.697 26.324C199.449 26.324 198.321 26.048 197.313 25.496C196.329 24.92 195.561 24.14 195.009 23.156C194.457 22.148 194.181 21.008 194.181 19.736V10.268C194.181 9.356 194.505 8.696 195.153 8.288C195.825 7.88 196.857 7.676 198.249 7.676V19.484C198.249 20.516 198.549 21.332 199.149 21.932C199.749 22.508 200.637 22.796 201.813 22.796C203.085 22.796 204.117 22.412 204.909 21.644C205.701 20.876 206.097 19.916 206.097 18.764V10.268C206.097 9.356 206.421 8.696 207.069 8.288C207.741 7.88 208.761 7.676 210.129 7.676V23.12ZM223.435 11.168C222.043 11.168 220.903 11.564 220.015 12.356C219.127 13.124 218.683 14.072 218.683 15.2V23.732C218.683 24.644 218.347 25.304 217.675 25.712C217.027 26.12 216.019 26.324 214.651 26.324V10.88C214.651 8.744 215.935 7.676 218.503 7.676V9.836C218.167 10.22 217.891 10.604 217.675 10.988L217.855 11.132C219.415 8.828 221.323 7.676 223.579 7.676C224.539 7.676 225.271 7.928 225.775 8.432C226.279 8.912 226.531 9.524 226.531 10.268C226.531 10.82 226.387 11.312 226.099 11.744C225.403 11.36 224.515 11.168 223.435 11.168ZM229.873 10.88C229.873 8.744 231.157 7.676 233.725 7.676V9.872C233.437 10.184 233.161 10.556 232.897 10.988L233.113 11.132C233.809 10.076 234.721 9.236 235.849 8.612C237.001 7.988 238.261 7.676 239.629 7.676C240.877 7.676 241.969 7.952 242.905 8.504C243.841 9.032 244.561 9.776 245.065 10.736C245.593 11.696 245.857 12.764 245.857 13.94V23.732C245.857 24.644 245.521 25.304 244.849 25.712C244.177 26.12 243.169 26.324 241.825 26.324V14.48C241.825 13.496 241.525 12.704 240.925 12.104C240.349 11.48 239.497 11.168 238.369 11.168C237.121 11.168 236.065 11.564 235.201 12.356C234.337 13.124 233.905 14.072 233.905 15.2V23.732C233.905 24.644 233.569 25.304 232.897 25.712C232.249 26.12 231.241 26.324 229.873 26.324V10.88ZM256.064 26.324C254.792 26.324 253.64 26.084 252.608 25.604C251.576 25.124 250.76 24.428 250.16 23.516C249.56 22.604 249.26 21.536 249.26 20.312C249.26 19.064 249.572 17.984 250.196 17.072C250.844 16.136 251.72 15.428 252.824 14.948C253.928 14.444 255.164 14.192 256.532 14.192C258.716 14.192 260.552 14.936 262.04 16.424L262.22 16.244C261.788 15.812 261.44 15.5 261.176 15.308V14.3C261.176 13.244 260.816 12.416 260.096 11.816C259.376 11.192 258.368 10.88 257.072 10.88C255.92 10.88 254.912 11.108 254.048 11.564C253.184 11.996 252.488 12.644 251.96 13.508C251.48 13.34 251.072 13.076 250.736 12.716C250.424 12.356 250.268 11.972 250.268 11.564C250.268 10.868 250.592 10.22 251.24 9.62C251.888 9.02 252.752 8.552 253.832 8.216C254.936 7.856 256.124 7.676 257.396 7.676C259.844 7.676 261.74 8.264 263.084 9.44C264.452 10.592 265.136 12.176 265.136 14.192V23.516C265.136 24.5 264.836 25.22 264.236 25.676C263.636 26.108 262.676 26.324 261.356 26.324V24.776C261.788 24.344 262.076 24.032 262.22 23.84L262.04 23.696C261.272 24.56 260.408 25.22 259.448 25.676C258.512 26.108 257.384 26.324 256.064 26.324ZM257 23.3C258.32 23.3 259.352 23.036 260.096 22.508C260.864 21.98 261.248 21.236 261.248 20.276C261.248 19.316 260.864 18.572 260.096 18.044C259.352 17.492 258.332 17.216 257.036 17.216C255.86 17.216 254.924 17.492 254.228 18.044C253.556 18.572 253.22 19.316 253.22 20.276C253.22 21.26 253.556 22.016 254.228 22.544C254.9 23.048 255.824 23.3 257 23.3ZM275.147 26.324C273.227 26.324 271.787 25.784 270.827 24.704C269.867 23.624 269.387 22.232 269.387 20.528V3.068C269.387 2.156 269.711 1.496 270.359 1.088C271.031 0.679998 272.051 0.475998 273.419 0.475998V20.384C273.419 21.248 273.599 21.872 273.959 22.256C274.343 22.616 274.955 22.796 275.795 22.796C276.731 22.796 277.583 22.568 278.351 22.112C278.567 22.304 278.735 22.556 278.855 22.868C278.975 23.156 279.035 23.444 279.035 23.732C279.035 24.404 278.687 25.004 277.991 25.532C277.319 26.06 276.371 26.324 275.147 26.324Z" fill="white"/>
</svg>
