<svg width="101" height="18" viewBox="0 0 101 18" fill="none" xmlns="http://www.w3.org/2000/svg">
<path d="M12.518 11.764C12.518 12.204 12.496 12.6513 12.452 13.106C12.408 13.546 12.32 13.9787 12.188 14.404C12.056 14.8147 11.858 15.2107 11.594 15.592C11.33 15.9587 10.9707 16.2813 10.516 16.56C10.296 16.7067 10.032 16.8313 9.724 16.934C9.43067 17.022 9.11533 17.0953 8.778 17.154C8.45533 17.2273 8.13267 17.2713 7.81 17.286C7.48733 17.3153 7.18667 17.3227 6.908 17.308C5.588 17.264 4.51733 16.9487 3.696 16.362C2.88933 15.7607 2.266 15.02 1.826 14.14C1.40067 13.26 1.122 12.3067 0.99 11.28C0.872667 10.2387 0.850667 9.24867 0.924 8.31C0.968 7.75267 1.06333 7.15133 1.21 6.506C1.37133 5.86067 1.59867 5.23733 1.892 4.636C2.2 4.03467 2.574 3.492 3.014 3.008C3.46867 2.524 4.004 2.15733 4.62 1.908C5.192 1.67333 5.81533 1.52667 6.49 1.468C7.17933 1.39467 7.854 1.41667 8.514 1.534C9.18867 1.65133 9.812 1.864 10.384 2.172C10.9707 2.48 11.4327 2.89067 11.77 3.404C12.0047 3.78533 12.188 4.24733 12.32 4.79C12.452 5.33267 12.474 5.85333 12.386 6.352C12.3127 6.792 12.1587 7.1 11.924 7.276C11.6893 7.43733 11.4327 7.50333 11.154 7.474C10.8753 7.43 10.604 7.31267 10.34 7.122C10.0907 6.91667 9.922 6.66 9.834 6.352C9.73133 6.01467 9.60667 5.70667 9.46 5.428C9.31333 5.13467 9.086 4.89267 8.778 4.702C8.426 4.482 8.052 4.35733 7.656 4.328C7.27467 4.29867 6.90067 4.34267 6.534 4.46C6.182 4.57733 5.84467 4.76067 5.522 5.01C5.214 5.25933 4.95733 5.54533 4.752 5.868C4.50267 6.23467 4.312 6.638 4.18 7.078C4.048 7.50333 3.95267 7.95067 3.894 8.42C3.83533 8.87467 3.81333 9.33667 3.828 9.806C3.85733 10.2607 3.916 10.7007 4.004 11.126C4.16533 11.8447 4.41467 12.5193 4.752 13.15C4.884 13.3847 5.06 13.5973 5.28 13.788C5.51467 13.964 5.77133 14.1107 6.05 14.228C6.32867 14.3307 6.622 14.3967 6.93 14.426C7.238 14.4553 7.53133 14.4333 7.81 14.36C8.206 14.2573 8.52867 14.1253 8.778 13.964C9.02733 13.788 9.22533 13.5827 9.372 13.348C9.51867 13.1133 9.614 12.8567 9.658 12.578C9.71667 12.2993 9.746 12.006 9.746 11.698V11.676C9.55533 11.676 9.38667 11.676 9.24 11.676C9.09333 11.6613 8.98333 11.654 8.91 11.654C8.58733 11.654 8.272 11.5953 7.964 11.478C7.7 11.39 7.502 11.2507 7.37 11.06C7.22333 10.8987 7.15 10.7007 7.15 10.466C7.15 10.378 7.15 10.2973 7.15 10.224C7.16467 10.136 7.17933 10.048 7.194 9.96C7.238 9.84267 7.33333 9.696 7.48 9.52C7.568 9.44667 7.70733 9.388 7.898 9.344C7.986 9.31467 8.074 9.29267 8.162 9.278C8.25 9.24867 8.35267 9.22667 8.47 9.212C8.558 9.19733 8.65333 9.19 8.756 9.19C8.85867 9.19 8.96133 9.19 9.064 9.19H11.066C11.2273 9.17533 11.4107 9.19733 11.616 9.256C11.836 9.3 12.0047 9.37333 12.122 9.476C12.166 9.53467 12.21 9.59333 12.254 9.652C12.298 9.71067 12.3347 9.77667 12.364 9.85C12.4227 10.0113 12.4593 10.1727 12.474 10.334C12.4887 10.422 12.496 10.5173 12.496 10.62C12.5107 10.708 12.518 10.7887 12.518 10.862V11.764ZM17.1243 7.056C17.6083 6.82133 18.1143 6.65267 18.6423 6.55C19.1703 6.44733 19.6909 6.42533 20.2043 6.484C20.7323 6.54267 21.2383 6.682 21.7223 6.902C22.2209 7.122 22.6756 7.43 23.0863 7.826C23.4236 8.16333 23.7169 8.574 23.9663 9.058C24.2156 9.52733 24.3989 9.98933 24.5162 10.444C24.7656 11.2507 24.8023 12.0647 24.6263 12.886C24.4503 13.7073 24.1496 14.47 23.7243 15.174C23.5189 15.4967 23.2623 15.79 22.9543 16.054C22.6609 16.3033 22.3456 16.5087 22.0083 16.67C21.5683 16.8753 21.0916 17.0147 20.5783 17.088C20.0649 17.176 19.5663 17.198 19.0823 17.154C18.2023 17.11 17.4249 16.89 16.7503 16.494C16.0903 16.098 15.5549 15.592 15.1443 14.976C14.7483 14.36 14.4843 13.6633 14.3523 12.886C14.2349 12.094 14.2863 11.2873 14.5063 10.466C14.7409 9.586 15.0783 8.87467 15.5183 8.332C15.9729 7.77467 16.5083 7.34933 17.1243 7.056ZM17.7843 10.004C17.5643 10.2093 17.3956 10.466 17.2783 10.774C17.1609 11.082 17.0876 11.4047 17.0583 11.742C17.0289 12.0647 17.0509 12.3947 17.1243 12.732C17.2123 13.0547 17.3443 13.348 17.5203 13.612C17.6669 13.832 17.9309 14.0153 18.3123 14.162C18.6936 14.3087 19.0896 14.3967 19.5003 14.426C19.9696 14.4553 20.3803 14.3307 20.7323 14.052C21.0843 13.7587 21.3483 13.3993 21.5243 12.974C21.7149 12.5487 21.8029 12.0867 21.7883 11.588C21.7736 11.0893 21.6416 10.6347 21.3923 10.224C21.2163 9.93067 20.9669 9.718 20.6443 9.586C20.3363 9.43933 20.0063 9.366 19.6543 9.366C19.3169 9.35133 18.9796 9.40267 18.6423 9.52C18.3049 9.62267 18.0189 9.784 17.7843 10.004ZM29.3274 7.056C29.8114 6.82133 30.3174 6.65267 30.8454 6.55C31.3734 6.44733 31.894 6.42533 32.4074 6.484C32.9354 6.54267 33.4414 6.682 33.9254 6.902C34.424 7.122 34.8787 7.43 35.2894 7.826C35.6267 8.16333 35.92 8.574 36.1694 9.058C36.4187 9.52733 36.602 9.98933 36.7194 10.444C36.9687 11.2507 37.0054 12.0647 36.8294 12.886C36.6534 13.7073 36.3527 14.47 35.9274 15.174C35.722 15.4967 35.4654 15.79 35.1574 16.054C34.864 16.3033 34.5487 16.5087 34.2114 16.67C33.7714 16.8753 33.2947 17.0147 32.7814 17.088C32.268 17.176 31.7694 17.198 31.2854 17.154C30.4054 17.11 29.628 16.89 28.9534 16.494C28.2934 16.098 27.758 15.592 27.3474 14.976C26.9514 14.36 26.6874 13.6633 26.5554 12.886C26.438 12.094 26.4894 11.2873 26.7094 10.466C26.944 9.586 27.2814 8.87467 27.7214 8.332C28.176 7.77467 28.7114 7.34933 29.3274 7.056ZM29.9874 10.004C29.7674 10.2093 29.5987 10.466 29.4814 10.774C29.364 11.082 29.2907 11.4047 29.2614 11.742C29.232 12.0647 29.254 12.3947 29.3274 12.732C29.4154 13.0547 29.5474 13.348 29.7234 13.612C29.87 13.832 30.134 14.0153 30.5154 14.162C30.8967 14.3087 31.2927 14.3967 31.7034 14.426C32.1727 14.4553 32.5834 14.3307 32.9354 14.052C33.2874 13.7587 33.5514 13.3993 33.7274 12.974C33.918 12.5487 34.006 12.0867 33.9914 11.588C33.9767 11.0893 33.8447 10.6347 33.5954 10.224C33.4194 9.93067 33.17 9.718 32.8474 9.586C32.5394 9.43933 32.2094 9.366 31.8574 9.366C31.52 9.35133 31.1827 9.40267 30.8454 9.52C30.508 9.62267 30.222 9.784 29.9874 10.004ZM45.5565 1.622C45.8352 1.54867 46.0772 1.54133 46.2825 1.6C46.5025 1.644 46.6858 1.73933 46.8325 1.886C46.9938 2.03267 47.1112 2.216 47.1845 2.436C47.2725 2.656 47.3165 2.898 47.3165 3.162C47.3312 3.89533 47.3312 4.46733 47.3165 4.878C47.3165 5.28867 47.3165 5.648 47.3165 5.956V12.71C47.3165 13.502 47.3165 14.162 47.3165 14.69C47.3165 15.218 47.2872 15.6507 47.2285 15.988C47.1845 16.3107 47.0965 16.5527 46.9645 16.714C46.8472 16.8753 46.6638 16.9853 46.4145 17.044C46.1652 17.1173 45.8352 17.154 45.4245 17.154C45.0285 17.154 44.5298 17.154 43.9285 17.154C42.3445 17.154 41.0905 16.78 40.1665 16.032C39.2572 15.284 38.7732 14.096 38.7145 12.468C38.6852 11.764 38.7732 11.1187 38.9785 10.532C39.1838 9.94533 39.4845 9.44667 39.8805 9.036C40.2912 8.61067 40.7898 8.288 41.3765 8.068C41.9778 7.83333 42.6598 7.72333 43.4225 7.738H44.6325V3.8C44.6325 3.56533 44.6325 3.338 44.6325 3.118C44.6325 2.88333 44.6545 2.67067 44.6985 2.48C44.7425 2.27467 44.8305 2.09867 44.9625 1.952C45.0945 1.80533 45.2925 1.69533 45.5565 1.622ZM41.7285 13.832C42.0365 14.2573 42.5938 14.492 43.4005 14.536C43.5618 14.5507 43.7158 14.558 43.8625 14.558C44.0092 14.5433 44.1412 14.5213 44.2585 14.492C44.3905 14.4773 44.5152 14.4553 44.6325 14.426V10.356C44.1192 10.268 43.6498 10.2167 43.2245 10.202C42.8138 10.1727 42.4032 10.3193 41.9925 10.642C41.7725 10.818 41.6038 11.0453 41.4865 11.324C41.3692 11.588 41.3032 11.874 41.2885 12.182C41.2738 12.4753 41.3032 12.7687 41.3765 13.062C41.4498 13.3553 41.5672 13.612 41.7285 13.832ZM64.9698 15.328C64.9991 15.4013 65.0138 15.5113 65.0138 15.658C65.0138 15.79 65.0138 15.9 65.0138 15.988C65.0138 16.1053 64.9918 16.2153 64.9478 16.318C64.9038 16.4207 64.8451 16.516 64.7718 16.604C64.6398 16.78 64.4491 16.912 64.1998 17C63.8478 17.1173 63.5178 17.176 63.2098 17.176C63.0484 17.1907 62.8798 17.198 62.7038 17.198C62.5278 17.198 62.3518 17.2127 62.1758 17.242H62.0878C60.9584 17.2567 59.7924 17.2567 58.5898 17.242C58.2964 17.2273 57.9664 17.2273 57.5998 17.242C57.2331 17.2713 56.8738 17.264 56.5218 17.22C56.1698 17.1907 55.8471 17.11 55.5538 16.978C55.2751 16.8313 55.0771 16.604 54.9598 16.296C54.9304 16.2227 54.9084 16.1567 54.8938 16.098C54.8791 16.0247 54.8718 15.9513 54.8718 15.878C54.8131 15.3793 54.7911 14.888 54.8058 14.404C54.8204 13.92 54.8278 13.4433 54.8278 12.974L54.8718 9.784V6.836C54.8718 6.308 54.8718 5.83867 54.8718 5.428C54.8864 5.01733 54.9011 4.56267 54.9158 4.064V3.954C54.9304 3.80733 54.9378 3.66067 54.9378 3.514C54.9524 3.36733 54.9598 3.22067 54.9598 3.074C54.9891 2.73667 55.0698 2.45067 55.2018 2.216C55.2898 1.996 55.4438 1.82 55.6638 1.688C55.8544 1.556 56.0818 1.49 56.3458 1.49C56.4484 1.49 56.5438 1.49733 56.6318 1.512C56.7344 1.512 56.8298 1.51933 56.9178 1.534C57.0058 1.54867 57.0864 1.578 57.1598 1.622C57.2478 1.666 57.3358 1.72467 57.4238 1.798C57.5118 1.90067 57.5924 2.02533 57.6658 2.172C57.7244 2.33333 57.7611 2.49467 57.7758 2.656C57.7904 2.75867 57.8051 2.854 57.8198 2.942C57.8344 3.03 57.8418 3.118 57.8418 3.206C57.8124 3.294 57.7978 3.382 57.7978 3.47C57.7978 3.558 57.7978 3.63867 57.7978 3.712V4.108L57.7098 14.47L62.0658 14.514H63.0998C63.1878 14.514 63.2831 14.5213 63.3858 14.536C63.4884 14.536 63.5911 14.5433 63.6938 14.558C63.8111 14.5727 63.9138 14.5873 64.0018 14.602C64.0898 14.6167 64.1778 14.6387 64.2658 14.668C64.4271 14.712 64.5591 14.7853 64.6618 14.888C64.8231 15.0347 64.9258 15.1813 64.9698 15.328ZM75.5783 11.764C75.5489 12.248 75.5196 12.7393 75.4903 13.238C75.4609 13.722 75.3803 14.1913 75.2483 14.646C75.1309 15.1007 74.9403 15.5113 74.6763 15.878C74.4269 16.2447 74.0676 16.538 73.5983 16.758C73.1876 16.9633 72.7476 17.1027 72.2783 17.176C71.8089 17.264 71.3396 17.3007 70.8703 17.286C70.4009 17.2713 69.9463 17.198 69.5063 17.066C69.0663 16.9487 68.6703 16.78 68.3183 16.56C67.9663 16.34 67.6803 16.054 67.4603 15.702C67.2403 15.35 67.0643 14.9687 66.9323 14.558C66.8149 14.1473 66.7343 13.722 66.6903 13.282C66.6463 12.842 66.6169 12.4313 66.6023 12.05C66.5436 11.038 66.5436 10.0407 66.6023 9.058C66.6023 8.86733 66.6023 8.65467 66.6023 8.42C66.6023 8.17067 66.6169 7.92867 66.6463 7.694C66.6903 7.45933 66.7563 7.24667 66.8443 7.056C66.9323 6.85067 67.0789 6.69667 67.2843 6.594C67.7243 6.35933 68.1276 6.34467 68.4943 6.55C68.8756 6.75533 69.1029 7.18067 69.1763 7.826C69.2203 8.16333 69.2349 8.53733 69.2203 8.948C69.2203 9.35867 69.2349 9.73267 69.2643 10.07C69.2789 10.5687 69.2936 11.1113 69.3083 11.698C69.3229 12.27 69.4036 12.7833 69.5503 13.238C69.7116 13.6927 69.9683 14.0373 70.3203 14.272C70.6869 14.492 71.2296 14.4993 71.9483 14.294C72.2856 14.1913 72.5056 13.9347 72.6083 13.524C72.7256 13.1133 72.7843 12.5047 72.7843 11.698C72.7843 11.346 72.7769 10.9573 72.7623 10.532C72.7476 10.1067 72.7403 9.68867 72.7403 9.278C72.7403 8.85267 72.7476 8.464 72.7623 8.112C72.7916 7.74533 72.8356 7.46667 72.8943 7.276C72.9676 7.012 73.1216 6.814 73.3563 6.682C73.5909 6.55 73.8403 6.484 74.1043 6.484C74.3683 6.46933 74.6176 6.52067 74.8523 6.638C75.0869 6.75533 75.2483 6.946 75.3363 7.21C75.4243 7.44467 75.4829 7.74533 75.5123 8.112C75.5563 8.464 75.5856 8.85267 75.6003 9.278C75.6149 9.68867 75.6149 10.114 75.6003 10.554C75.6003 10.9793 75.5929 11.3827 75.5783 11.764ZM85.5699 8.53C85.6872 8.73533 85.7459 8.95533 85.7459 9.19C85.7605 9.42467 85.7092 9.64467 85.5919 9.85C85.4599 10.114 85.2692 10.2973 85.0199 10.4C84.7852 10.488 84.5212 10.4953 84.2279 10.422C84.0959 10.3927 83.9785 10.3413 83.8759 10.268C83.7732 10.1947 83.6632 10.1213 83.5459 10.048C83.4432 9.96 83.3185 9.87933 83.1719 9.806C83.0399 9.73267 82.8639 9.68133 82.6439 9.652C82.4239 9.62267 82.1819 9.62267 81.9179 9.652C81.6685 9.68133 81.4412 9.74 81.2359 9.828C80.9132 9.98933 80.6565 10.2387 80.4659 10.576C80.2752 10.8987 80.1505 11.2507 80.0919 11.632C80.0332 11.9987 80.0405 12.3727 80.1139 12.754C80.2019 13.1353 80.3632 13.458 80.5979 13.722C80.7739 13.9273 81.0012 14.096 81.2799 14.228C81.5732 14.36 81.8519 14.4407 82.1159 14.47C82.3652 14.4993 82.6145 14.4993 82.8639 14.47C83.1132 14.426 83.3552 14.3673 83.5899 14.294C83.7659 14.2207 83.9639 14.1253 84.1839 14.008C84.4039 13.876 84.6165 13.7953 84.8219 13.766C85.0859 13.766 85.2912 13.8393 85.4379 13.986C85.5845 14.118 85.6872 14.2867 85.7459 14.492C85.8045 14.6827 85.8119 14.888 85.7679 15.108C85.7385 15.328 85.6579 15.5187 85.5259 15.68C85.3499 15.9 85.1005 16.1127 84.7779 16.318C84.4552 16.5087 84.1472 16.648 83.8539 16.736C83.5019 16.8533 83.1059 16.9193 82.6659 16.934C82.2405 16.9487 81.8372 16.934 81.4559 16.89C81.2799 16.8607 81.0965 16.824 80.9059 16.78C80.7152 16.736 80.5319 16.6847 80.3559 16.626C79.7105 16.3913 79.1679 16.0613 78.7279 15.636C78.3025 15.196 77.9725 14.7047 77.7379 14.162C77.5179 13.6193 77.3932 13.04 77.3639 12.424C77.3345 11.808 77.4079 11.1993 77.5839 10.598C77.7452 10.026 77.9432 9.542 78.1779 9.146C78.4272 8.75 78.7132 8.42733 79.0359 8.178C79.3732 7.914 79.7472 7.70867 80.1579 7.562C80.5685 7.40067 81.0232 7.26133 81.5219 7.144C82.0352 7.04133 82.5779 7.04133 83.1499 7.144C83.7219 7.24667 84.2352 7.43733 84.6899 7.716C85.0419 7.90667 85.3352 8.178 85.5699 8.53ZM91.926 11.94C92.2486 12.2773 92.4833 12.5267 92.63 12.688C92.7913 12.8347 92.9013 12.9447 92.96 13.018C93.0333 13.0913 93.0846 13.1353 93.114 13.15C93.1433 13.1647 93.1946 13.2087 93.268 13.282C93.3413 13.3553 93.4586 13.4727 93.62 13.634C93.7813 13.7807 94.0233 14.0227 94.346 14.36C94.61 14.624 94.8226 14.932 94.984 15.284C95.16 15.6213 95.1453 15.988 94.94 16.384C94.8226 16.5893 94.6906 16.736 94.544 16.824C94.3973 16.8973 94.236 16.9267 94.06 16.912C93.8986 16.8973 93.7226 16.846 93.532 16.758C93.356 16.67 93.18 16.56 93.004 16.428C92.6666 16.1787 92.344 15.8927 92.036 15.57C91.728 15.2327 91.4786 14.976 91.288 14.8C91.156 14.668 91.0753 14.58 91.046 14.536C91.0166 14.5067 90.9873 14.4847 90.958 14.47C90.9286 14.4407 90.8993 14.4113 90.87 14.382C90.7673 14.2793 90.6573 14.1767 90.54 14.074C90.4226 13.9713 90.3053 13.8613 90.188 13.744V14.602C90.188 14.7633 90.1953 14.8807 90.21 14.954C90.21 15.1007 90.2026 15.2107 90.188 15.284C90.144 15.4453 90.122 15.5993 90.122 15.746C90.1073 15.8193 90.0926 15.8927 90.078 15.966C90.0633 16.0247 90.0413 16.0907 90.012 16.164C89.9973 16.1933 89.9826 16.2153 89.968 16.23C89.968 16.2447 89.968 16.2667 89.968 16.296C89.9533 16.3253 89.9386 16.3473 89.924 16.362C89.924 16.3767 89.9166 16.3987 89.902 16.428C89.8286 16.5747 89.7113 16.714 89.55 16.846C89.2713 17.0073 88.9266 17.0513 88.516 16.978C88.296 16.934 88.1273 16.8533 88.01 16.736C87.878 16.648 87.79 16.5233 87.746 16.362C87.7166 16.2887 87.6873 16.2153 87.658 16.142C87.6433 16.054 87.6213 15.9733 87.592 15.9C87.5626 15.8267 87.548 15.7607 87.548 15.702C87.548 15.6287 87.548 15.57 87.548 15.526V3.008C87.548 2.92 87.548 2.832 87.548 2.744C87.548 2.656 87.5553 2.568 87.57 2.48C87.5846 2.392 87.5993 2.31133 87.614 2.238C87.6433 2.15 87.6726 2.06933 87.702 1.996C87.7606 1.84933 87.834 1.732 87.922 1.644C87.9953 1.57067 88.0686 1.51933 88.142 1.49C88.23 1.446 88.3106 1.40933 88.384 1.38C88.4573 1.36533 88.538 1.358 88.626 1.358C88.7286 1.34333 88.824 1.336 88.912 1.336C89.1173 1.336 89.3226 1.39467 89.528 1.512C89.7186 1.644 89.858 1.81267 89.946 2.018C90.0633 2.29667 90.122 2.568 90.122 2.832C90.1366 2.97867 90.1513 3.206 90.166 3.514C90.1806 3.80733 90.188 4.02733 90.188 4.174V4.262C90.2026 4.746 90.21 5.208 90.21 5.648C90.21 6.088 90.21 6.56467 90.21 7.078C90.1953 7.59133 90.188 8.08267 90.188 8.552C90.188 9.00667 90.188 9.46133 90.188 9.916V10.158C90.3053 10.0407 90.4226 9.93067 90.54 9.828C90.6573 9.72533 90.7673 9.61533 90.87 9.498C90.9286 9.454 90.9873 9.40267 91.046 9.344L91.288 9.102C91.4786 8.91133 91.728 8.65467 92.036 8.332C92.344 7.99467 92.6666 7.70133 93.004 7.452C93.3706 7.188 93.7226 7.02667 94.06 6.968C94.412 6.90933 94.7053 7.08533 94.94 7.496C95.1453 7.892 95.16 8.266 94.984 8.618C94.8226 8.95533 94.61 9.27067 94.346 9.564C94.0233 9.90133 93.7813 10.1507 93.62 10.312C93.4586 10.4587 93.3413 10.5687 93.268 10.642C93.1946 10.7007 93.1433 10.7373 93.114 10.752C93.0846 10.7667 93.0333 10.8107 92.96 10.884C92.9013 10.9427 92.7913 11.0527 92.63 11.214C92.4833 11.3607 92.2486 11.6027 91.926 11.94ZM97.8622 0.785999C97.9795 0.595332 98.1409 0.455999 98.3462 0.367999C98.5515 0.279999 98.7495 0.235999 98.9402 0.235999C99.1015 0.235999 99.2555 0.243333 99.4022 0.257999C99.5635 0.257999 99.7175 0.272666 99.8642 0.301999C100.172 0.389999 100.392 0.587999 100.524 0.895999C100.656 1.18933 100.737 1.534 100.766 1.93C100.81 2.31133 100.818 2.69267 100.788 3.074C100.774 3.45533 100.766 3.76333 100.766 3.998V10.488C100.766 10.7813 100.766 11.0747 100.766 11.368C100.766 11.6613 100.715 11.94 100.612 12.204C100.51 12.4533 100.319 12.6367 100.04 12.754C99.7615 12.8713 99.4682 12.93 99.1602 12.93C98.8522 12.9153 98.5589 12.8493 98.2802 12.732C98.0015 12.6 97.8109 12.4167 97.7082 12.182C97.6642 12.05 97.6275 11.8887 97.5982 11.698C97.5835 11.4927 97.5689 11.3093 97.5542 11.148C97.5395 10.8987 97.5322 10.642 97.5322 10.378C97.5469 10.0993 97.5542 9.82067 97.5542 9.542V2.172C97.5542 1.996 97.5762 1.76867 97.6202 1.49C97.6642 1.21133 97.7449 0.976666 97.8622 0.785999ZM100.392 14.932C100.436 15.0053 100.473 15.0787 100.502 15.152C100.546 15.2107 100.583 15.284 100.612 15.372C100.656 15.5333 100.686 15.702 100.7 15.878C100.715 16.054 100.7 16.23 100.656 16.406C100.612 16.5673 100.539 16.7213 100.436 16.868C100.334 17.0147 100.194 17.1247 100.018 17.198C99.8569 17.2713 99.6662 17.3153 99.4462 17.33C99.2262 17.3447 99.0135 17.33 98.8082 17.286C98.6029 17.242 98.4122 17.1613 98.2362 17.044C98.0602 16.9267 97.9355 16.7727 97.8622 16.582C97.7889 16.3767 97.7449 16.142 97.7302 15.878C97.7302 15.5993 97.7669 15.3573 97.8402 15.152C97.9282 14.932 98.0675 14.7853 98.2582 14.712C98.4489 14.624 98.6542 14.58 98.8742 14.58C99.1529 14.5653 99.4242 14.5727 99.6882 14.602C99.9669 14.6313 100.202 14.7413 100.392 14.932Z" fill="white"/>
</svg>
