<svg width="70" height="70" viewBox="0 0 70 70" fill="none" xmlns="http://www.w3.org/2000/svg">
<path fill-rule="evenodd" clip-rule="evenodd" d="M61.9822 12.4396C61.994 12.2937 62 12.1472 62 12C62 5.37258 49.9117 0 35 0C20.0883 0 8 5.37258 8 12C8 12.1472 8.00596 12.2937 8.01778 12.4396H8.01562L11.9566 49.2897C12.6016 55.321 12.9241 58.3366 14.0405 60.7402C15.8802 64.7009 19.2588 67.7374 23.3926 69.1455C25.9013 70 28.9342 70 34.9999 70C41.0656 70 44.0985 70 46.6073 69.1455C50.7411 67.7374 54.1197 64.7008 55.9593 60.7401C57.0758 58.3365 57.3982 55.3208 58.0432 49.2894L61.9613 12.648C61.9668 12.6022 61.9717 12.5563 61.976 12.5104L61.9836 12.4396H61.9822ZM56.0179 11.8602C56.0179 11.8602 56.0169 11.8703 56.009 11.8906C56.013 11.8704 56.0179 11.8602 56.0179 11.8602ZM55.5318 11.4654C55.7656 11.711 55.8902 11.8888 55.9545 12C55.8902 12.1112 55.7656 12.289 55.5318 12.5346C54.8745 13.2253 53.6398 14.1203 51.6551 15.0024C47.7007 16.7599 41.8173 18 35 18C28.1827 18 22.2993 16.7599 18.3449 15.0024C16.3602 14.1203 15.1255 13.2253 14.4682 12.5346C14.2344 12.289 14.1098 12.1112 14.0455 12C14.1098 11.8888 14.2344 11.711 14.4682 11.4654C15.1255 10.7747 16.3602 9.8797 18.3449 8.99759C22.2993 7.2401 28.1827 6 35 6C41.8173 6 47.7007 7.2401 51.6551 8.99759C53.6398 9.8797 54.8745 10.7747 55.5318 11.4654ZM13.9821 11.8602C13.9821 11.8602 13.987 11.8704 13.991 11.8906C13.9831 11.8703 13.9821 11.8602 13.9821 11.8602ZM13.9821 12.1398C13.9821 12.1398 13.9831 12.1297 13.991 12.1094C13.987 12.1296 13.9821 12.1398 13.9821 12.1398ZM56.009 12.1094C56.0169 12.1297 56.0179 12.1398 56.0179 12.1398C56.0179 12.1398 56.013 12.1296 56.009 12.1094ZM55.1418 19.9916C50.1974 22.4515 43.0056 24 35 24C26.994 24 19.8019 22.4513 14.8574 19.9913L17.9225 48.6516C18.6178 55.1529 18.8884 56.9344 19.4822 58.2127C20.632 60.688 22.7436 62.5859 25.3272 63.4659C26.6614 63.9204 28.4615 64 34.9999 64C41.5383 64 43.3385 63.9204 44.6726 63.4659C47.2563 62.5858 49.3679 60.688 50.5177 58.2126C51.1114 56.9343 51.382 55.1528 52.0772 48.6514L55.1418 19.9916Z" fill="black"/>
</svg>
